<?xml version="1.0" encoding="utf-8"?>
<!-- Generator: Adobe Illustrator 19.2.1, SVG Export Plug-In . SVG Version: 6.00 Build 0)  -->
<svg version="1.1" id="Capa_1" xmlns="http://www.w3.org/2000/svg" xmlns:xlink="http://www.w3.org/1999/xlink" x="0px" y="0px"
	 viewBox="0 0 512 512" style="enable-background:new 0 0 512 512;" xml:space="preserve">
<style type="text/css">
	.st0{fill:#FAFAFA;}
	.st1{fill:#9DBED5;}
</style>
<rect class="st0" width="512" height="512"/>
<g>
	<path class="st1" d="M261.7,244.7c24.3,0,44-19.8,44-44s-19.8-44-44-44s-44,19.8-44,44S237.4,244.7,261.7,244.7z M261.7,168
		c18,0,32.7,14.7,32.7,32.7s-14.7,32.7-32.7,32.7S229,218.7,229,200.7S243.6,168,261.7,168z"/>
	<path class="st1" d="M261.7,256.4c-27.5,0-51.9,16.4-62.2,41.9c-1.2,2.9,0.2,6.2,3.1,7.4c2.9,1.2,6.2-0.2,7.4-3.1
		c8.6-21.2,28.9-34.8,51.7-34.8c22.8,0,43.1,13.7,51.7,34.8c0.9,2.2,3,3.5,5.2,3.5c0.7,0,1.4-0.1,2.1-0.4c2.9-1.2,4.3-4.5,3.1-7.4
		C313.5,272.9,289.1,256.4,261.7,256.4z"/>
	<path class="st1" d="M278.5,351.5h-33.7c-3.1,0-5.7,2.5-5.7,5.7c0,3.1,2.5,5.7,5.7,5.7h33.7c3.1,0,5.7-2.5,5.7-5.7
		C284.2,354,281.6,351.5,278.5,351.5z"/>
	<path class="st1" d="M437,380.8c0-0.1,0-0.2,0-0.2c0-0.2,0-0.3-0.1-0.5c0-0.1,0-0.1,0-0.2c-0.1-0.4-0.2-0.9-0.4-1.3c0,0,0,0,0-0.1
		l-24.2-52.4V156c0-14.5-11.8-26.3-26.3-26.3h-88.1v-34c0-3.1-2.5-5.7-5.7-5.7h-60.8c-3.1,0-5.7,2.5-5.7,5.7v34h-88.1
		c-14.5,0-26.3,11.8-26.3,26.3v170.2l-24.2,52.4c0,0,0,0,0,0.1c-0.2,0.4-0.3,0.8-0.4,1.3c0,0.1,0,0.1,0,0.2c0,0.2,0,0.3-0.1,0.5
		c0,0.1,0,0.2,0,0.2c0,0.1,0,0.1,0,0.2v30.3c0,3.1,2.5,5.7,5.7,5.7h339.3c3.1,0,5.7-2.5,5.7-5.7V381C437,380.9,437,380.9,437,380.8z
		 M236.9,101.3h49.5v28.4h-49.5L236.9,101.3L236.9,101.3z M122.5,156c0-8.3,6.7-15,15-15h248.4c8.3,0,15,6.7,15,15v165.8H122.5V156z
		 M120.4,333.1h282.5l19.5,42.3H100.9L120.4,333.1z M425.7,405.7H97.7v-19h327.9V405.7z"/>
	<path class="st1" d="M261.7,109.5c-3.3,0-6,2.7-6,6c0,3.3,2.7,6,6,6c3.3,0,6-2.7,6-6C267.7,112.2,265,109.5,261.7,109.5z"/>
</g>
</svg>
